<svg width="19" height="19" viewBox="0 0 19 19" fill="none" xmlns="http://www.w3.org/2000/svg">
<path opacity="0.7" d="M18.6555 16.9773L14.9756 13.2984C16.2355 11.6149 16.8108 9.51657 16.5857 7.42593C16.3606 5.33529 15.3518 3.40752 13.7624 2.03068C12.1731 0.653847 10.1211 -0.0698338 8.0195 0.00531778C5.91795 0.0804694 3.92289 0.948873 2.43592 2.43572C0.948951 3.92257 0.080476 5.91747 0.00531822 8.01885C-0.0698396 10.1202 0.6539 12.1721 2.03085 13.7613C3.4078 15.3506 5.33573 16.3593 7.42654 16.5843C9.51735 16.8094 11.6158 16.2342 13.2995 14.9744L16.9787 18.6532C17.2007 18.8753 17.5019 19 17.8159 19C18.13 19 18.4311 18.8753 18.6532 18.6532C18.8752 18.4312 19 18.13 19 17.816C19 17.502 18.8752 17.2009 18.6532 16.9788L18.6555 16.9773ZM8.34969 14.2645C7.17931 14.2645 6.03521 13.9175 5.06207 13.2673C4.08894 12.6172 3.33047 11.693 2.88258 10.6118C2.4347 9.53062 2.31751 8.34089 2.54584 7.19309C2.77417 6.04529 3.33776 4.99097 4.16535 4.16345C4.99293 3.33594 6.04734 2.77239 7.19524 2.54408C8.34313 2.31576 9.53295 2.43294 10.6142 2.88079C11.6955 3.32864 12.6197 4.08705 13.27 5.06011C13.9202 6.03316 14.2673 7.17717 14.2673 8.34746C14.2673 9.91676 13.6438 11.4218 12.534 12.5315C11.4243 13.6411 9.91913 14.2645 8.34969 14.2645Z" fill="#304654"/>
</svg>
