<svg width="80" height="81" viewBox="0 0 80 81" fill="none" xmlns="http://www.w3.org/2000/svg">
<path d="M13.332 21.0882H66.6654M33.332 56.3824V35.2059M46.6654 56.3824V35.2059M53.332 70.5H26.6654C22.9835 70.5 19.9987 67.3397 19.9987 63.4412V24.6176C19.9987 22.6684 21.4911 21.0882 23.332 21.0882H56.6654C58.5063 21.0882 59.9987 22.6684 59.9987 24.6176V63.4412C59.9987 67.3397 57.0139 70.5 53.332 70.5ZM33.332 21.0882H46.6654C48.5063 21.0882 49.9987 19.5081 49.9987 17.5588V14.0294C49.9987 12.0802 48.5063 10.5 46.6654 10.5H33.332C31.4911 10.5 29.9987 12.0802 29.9987 14.0294V17.5588C29.9987 19.5081 31.4911 21.0882 33.332 21.0882Z" stroke="#891538" stroke-width="3" stroke-linecap="round" stroke-linejoin="round"/>
</svg>
