<svg width="26" height="25" viewBox="0 0 26 25" fill="none" xmlns="http://www.w3.org/2000/svg">
<path d="M18.7982 10.7531C19.383 10.3453 19.8024 9.73676 19.9872 9.01867C20.1893 8.23376 20.0868 7.41611 19.6986 6.71632C19.3104 6.01653 18.6813 5.51531 17.9272 5.30497C17.2372 5.11257 16.5212 5.18626 15.8894 5.50943L14.2615 2.5749C13.9149 1.95018 13.2925 1.58607 12.6014 1.59833C11.9085 1.61154 11.3012 1.99994 10.9767 2.63731C10.7489 3.08511 10.5349 3.55027 10.3084 4.04278C9.38508 6.05006 8.3386 8.32516 6.07622 9.68458L3.16916 11.4314C2.16849 12.0326 1.45171 13.0074 1.1508 14.176C0.84994 15.3447 1.00239 16.5619 1.58012 17.6033C2.38328 19.0511 3.84554 19.8615 5.34709 19.8615C5.89473 19.8615 6.44756 19.7534 6.97562 19.5295L9.0079 23.193C9.42837 23.9509 10.1937 24.375 10.9797 24.375C11.3649 24.375 11.7551 24.2731 12.1121 24.0586C12.6361 23.7437 13.0114 23.2335 13.1689 22.622C13.3263 22.0105 13.2464 21.3734 12.9438 20.828L10.9441 17.2232C13.0495 16.1815 15.2594 16.3582 17.2269 16.5165C17.7505 16.5586 18.2449 16.5984 18.7318 16.617C19.4235 16.6427 20.0513 16.2901 20.4087 15.6721C20.7661 15.0541 20.7726 14.3123 20.4261 13.6876L18.7982 10.7531ZM17.6196 6.49929C18.0673 6.62413 18.4403 6.92073 18.6698 7.33455C19.1129 8.13336 18.8982 9.14232 18.2022 9.67855L16.4855 6.58407C16.8409 6.42347 17.2367 6.39246 17.6196 6.49929ZM5.34514 18.6253C4.25461 18.6252 3.19239 18.0367 2.60906 16.9851C2.19001 16.2297 2.07967 15.3457 2.29846 14.4961C2.5172 13.6464 3.03742 12.9383 3.76323 12.5022L6.1561 11.0644L9.31223 16.7467L6.91646 18.1863C6.42109 18.484 5.87981 18.6254 5.34514 18.6253ZM12.0214 22.3021C11.9461 22.5946 11.7673 22.8381 11.5181 22.9879C11.0003 23.299 10.3358 23.1138 10.0368 22.5748L8.02486 18.948L9.90302 17.8194L11.915 21.4463C12.0589 21.7057 12.0967 22.0096 12.0214 22.3021ZM19.3909 15.0345C19.2558 15.2682 19.0379 15.3919 18.7753 15.3814C18.3125 15.3638 17.8297 15.3249 17.3185 15.2838C15.1714 15.1111 12.7572 14.9175 10.3513 16.1469L7.17478 10.4277C9.40338 8.87237 10.4498 6.59895 11.38 4.57674C11.6012 4.09585 11.8101 3.64162 12.0266 3.21608C12.1493 2.97507 12.3611 2.8396 12.6231 2.83465C12.6281 2.83455 12.633 2.8345 12.638 2.8345C12.8932 2.8345 13.1041 2.96147 13.2326 3.19318L19.3973 14.306C19.5284 14.5422 19.5261 14.8009 19.3909 15.0345ZM17.8478 2.89564L19.0745 0.684239C19.2386 0.388525 19.6018 0.287184 19.886 0.457965C20.1701 0.628697 20.2674 1.00681 20.1034 1.30247L18.8766 3.51387C18.7666 3.7122 18.5669 3.82308 18.3617 3.82308C18.2609 3.82308 18.1587 3.79638 18.0652 3.74014C17.7811 3.56941 17.6838 3.1913 17.8478 2.89564ZM23.3629 5.2284L21.1866 6.53609C21.0931 6.59228 20.9909 6.61903 20.8902 6.61903C20.6849 6.61903 20.4853 6.50815 20.3752 6.30982C20.2112 6.0141 20.3085 5.63599 20.5926 5.46531L22.7688 4.15762C23.0529 3.98684 23.4162 4.08823 23.5803 4.3839C23.7443 4.67956 23.647 5.05772 23.3629 5.2284ZM25 9.67662C25 10.018 24.734 10.2949 24.406 10.2949H21.9524C21.6244 10.2949 21.3584 10.0181 21.3584 9.67662C21.3584 9.33516 21.6244 9.05839 21.9524 9.05839H24.406C24.734 9.05839 25 9.33516 25 9.67662Z" fill="black" stroke="black" stroke-width="0.5"/>
</svg>
