<svg width="269" height="180" viewBox="0 0 269 180" fill="none" xmlns="http://www.w3.org/2000/svg">
<g clip-path="url(#clip0_4141_19900)">
<path d="M266.893 136.51H238.614C240.68 128.078 241.775 119.266 241.775 110.198C241.775 92.1741 237.447 75.1617 229.774 60.1408H249.83C250.983 60.1408 251.918 59.2053 251.918 58.0526C251.918 56.8987 250.983 55.9644 249.83 55.9644H227.525C208.597 22.5504 172.72 0 131.576 0C104.21 0 79.1752 9.97693 59.9063 26.4906H25.9721C24.8182 26.4906 23.8838 27.4249 23.8838 28.5788C23.8838 29.7327 24.8182 30.667 25.9721 30.667H55.3002C52.9579 32.914 50.7157 35.2635 48.5786 37.7073H2.10666C0.952763 37.7073 0.0184326 38.6417 0.0184326 39.7956C0.0184326 40.9494 0.952763 41.8838 2.10666 41.8838H45.1049C30.2487 60.6635 21.378 84.394 21.378 110.198C21.378 124.639 24.1571 138.43 29.207 151.068H23.7048C22.551 151.068 21.6166 152.002 21.6166 153.156C21.6166 154.31 22.551 155.244 23.7048 155.244H30.9766C31.7367 156.938 32.5374 158.609 33.3787 160.256H8.66964C7.51575 160.256 6.58142 161.19 6.58142 162.344C6.58142 163.498 7.51575 164.433 8.66964 164.433H35.6268C38.2019 168.979 41.0908 173.325 44.2649 177.439H218.888C224.82 169.749 229.758 161.251 233.51 152.142H254.006C255.16 152.142 256.094 151.208 256.094 150.054C256.094 148.9 255.16 147.965 254.006 147.965H235.131C236.003 145.577 236.794 143.149 237.502 140.687H266.893C268.047 140.687 268.982 139.752 268.982 138.598C268.982 137.444 268.047 136.51 266.893 136.51Z" fill="#F8F8F8"/>
<path d="M177.893 177.434H164.542C164.542 176.469 165.324 175.688 166.287 175.688H176.147C177.111 175.688 177.893 176.469 177.893 177.434Z" fill="#F2F2F3"/>
<path d="M174.729 175.688H167.704L169.988 110.614L171.521 111.633L174.729 175.688Z" fill="#F2F2F3"/>
<path d="M176.898 177.434H163.548C163.548 176.469 164.329 175.688 165.294 175.688H175.154C176.116 175.688 176.898 176.469 176.898 177.434Z" fill="#F2F2F3"/>
<path d="M170.223 111.189L203.815 130.583L203.448 128.674C203.375 128.297 203.168 127.96 202.865 127.725L180.919 110.738C180.517 110.426 179.99 110.329 179.504 110.474L175.101 111.789C174.686 111.913 174.237 111.861 173.862 111.644L170.936 109.955L170.223 111.189Z" fill="#F2F2F3"/>
<path d="M169.51 109.955L135.919 129.349L137.753 129.984C138.117 130.111 138.515 130.1 138.872 129.954L164.55 119.445C165.023 119.252 165.373 118.843 165.491 118.345L166.551 113.882C166.653 113.459 166.923 113.095 167.3 112.876L170.223 111.189L169.51 109.955Z" fill="#F2F2F3"/>
<path d="M170.935 109.955V71.1666L169.467 72.4387C169.175 72.6904 168.987 73.0389 168.934 73.4207L165.196 100.916C165.128 101.421 165.307 101.928 165.677 102.278L169.014 105.43C169.331 105.729 169.51 106.145 169.51 106.579V109.956H170.935V109.955Z" fill="#F2F2F3"/>
<path d="M173.447 175.688H167L169.282 110.614H171.164L173.447 175.688Z" fill="#F2F2F3"/>
<path d="M171.875 110.614C171.875 111.526 171.136 112.265 170.223 112.265C169.31 112.265 168.573 111.526 168.573 110.614C168.573 109.702 169.311 108.962 170.223 108.962C171.135 108.962 171.875 109.702 171.875 110.614Z" fill="#F2F2F3"/>
<path d="M171.617 110.516C171.617 111.348 170.942 112.022 170.111 112.022C169.279 112.022 168.605 111.348 168.605 110.516C168.605 109.684 169.279 109.011 170.111 109.011C170.942 109.011 171.617 109.684 171.617 110.516Z" fill="#F2F2F3"/>
<path d="M136.514 129.556L168.605 110.516L168.576 110.494L135.919 129.349L136.514 129.556Z" fill="#F2F2F3"/>
<path d="M173.447 175.688H167.014V175.265H173.447V175.688Z" fill="#F2F2F3"/>
<path d="M170.459 71.5795L170.901 109.154L170.935 109.14V71.1666L170.459 71.5795Z" fill="#F2F2F3"/>
<path d="M203.696 129.964L171.163 111.693L171.158 111.728L203.815 130.583L203.696 129.964Z" fill="#F2F2F3"/>
<path d="M221.75 177.433H200.378C200.378 175.889 201.629 174.639 203.172 174.639H218.957C220.5 174.639 221.75 175.889 221.75 177.433Z" fill="#ECECEC"/>
<path d="M216.688 174.639H205.441L209.096 70.4568L211.553 72.0904L216.688 174.639Z" fill="#ECECEC"/>
<path d="M220.161 177.433H198.789C198.789 175.889 200.039 174.639 201.582 174.639H217.367C218.91 174.639 220.161 175.889 220.161 177.433Z" fill="#F2F2F3"/>
<path d="M209.474 71.3779L263.254 102.428L262.599 99.02C262.526 98.6442 262.32 98.3065 262.015 98.0714L226.215 70.3577C225.813 70.0462 225.285 69.9484 224.797 70.094L216.893 72.4555C216.478 72.5796 216.029 72.5271 215.653 72.3099L210.615 69.4019L209.474 71.3779Z" fill="#F2F2F3"/>
<path d="M208.334 69.4019L154.554 100.452L157.832 101.588C158.195 101.713 158.592 101.703 158.948 101.557L201.598 84.103L203.848 74.626L209.475 71.3779L208.334 69.4019Z" fill="#F2F2F3"/>
<path d="M210.614 69.402V7.30299L207.991 9.57259C207.701 9.82437 207.511 10.174 207.46 10.5547L201.36 55.4133C201.292 55.918 201.471 56.4251 201.841 56.776L207.836 62.438C208.152 62.7364 208.332 63.1516 208.332 63.5872V69.402H210.614Z" fill="#F2F2F3"/>
<path d="M214.636 174.639H204.314L207.969 70.4568H210.981L214.636 174.639Z" fill="#F2F2F3"/>
<path d="M212.119 70.4567C212.119 71.9173 210.935 73.0998 209.474 73.0998C208.014 73.0998 206.831 71.9161 206.831 70.4567C206.831 68.9973 208.015 67.8136 209.474 67.8136C210.934 67.8136 212.119 68.9973 212.119 70.4567Z" fill="#ECECEC"/>
<path d="M211.706 70.3015C211.706 71.6332 210.626 72.7119 209.294 72.7119C207.963 72.7119 206.884 71.632 206.884 70.3015C206.884 68.971 207.964 67.8911 209.294 67.8911C210.625 67.8911 211.706 68.971 211.706 70.3015Z" fill="#F2F2F3"/>
<path d="M155.508 100.782L206.884 70.3016L206.837 70.2658L154.554 100.452L155.508 100.782Z" fill="#ECECEC"/>
<path d="M214.635 174.638H204.337V173.962H214.635V174.638Z" fill="#ECECEC"/>
<path d="M209.852 7.96526L210.56 68.1204L210.614 68.0989V7.30299L209.852 7.96526Z" fill="#ECECEC"/>
<path d="M263.063 101.436L210.978 72.1845L210.971 72.2418L263.254 102.428L263.063 101.436Z" fill="#ECECEC"/>
<path d="M50.5702 126.991C43.6886 126.991 38.0576 121.36 38.0576 114.479V85.6769C38.0576 78.7953 43.6886 73.1655 50.5702 73.1655C57.4518 73.1655 63.0816 78.7965 63.0816 85.6769V114.479C63.0816 121.36 57.4518 126.991 50.5702 126.991Z" fill="#F2F2F3"/>
<path d="M51.2527 177.496H49.8876V93.1779C49.8876 92.8009 50.1931 92.4954 50.5702 92.4954C50.9473 92.4954 51.2527 92.8009 51.2527 93.1779V177.496Z" fill="#E4E4E4"/>
<path d="M51.2531 104.606L47.4573 98.0309C47.2688 97.7051 46.8512 97.5929 46.5242 97.7815C46.1984 97.97 46.0863 98.3877 46.2748 98.7134L50.0706 105.288L51.2531 104.606Z" fill="#E4E4E4"/>
<path d="M51.069 112.469L54.8648 105.894C55.0533 105.567 54.9423 105.151 54.6154 104.962C54.2884 104.774 53.872 104.885 53.6834 105.212L49.8876 111.787L51.069 112.469Z" fill="#E4E4E4"/>
<path d="M82.5215 113.287C73.7832 113.287 66.6331 106.137 66.6331 97.3983V60.8234C66.6331 52.0851 73.7832 44.935 82.5215 44.935C91.2598 44.935 98.4099 52.0851 98.4099 60.8234V97.3983C98.4099 106.137 91.2598 113.287 82.5215 113.287Z" fill="#F2F2F3"/>
<path d="M83.3872 177.419H81.6545V70.348C81.6545 69.8695 82.0424 69.4817 82.5209 69.4817C82.9994 69.4817 83.3872 69.8695 83.3872 70.348V177.419Z" fill="#E4E4E4"/>
<path d="M83.3879 84.8595L78.5683 76.5114C78.3284 76.0973 77.7986 75.9541 77.3846 76.194C76.9693 76.4338 76.8273 76.9636 77.0671 77.3777L81.8868 85.727L83.3879 84.8595Z" fill="#E4E4E4"/>
<path d="M83.1557 94.8459L87.9753 86.4966C88.2151 86.0825 88.0731 85.5515 87.6579 85.3129C87.2438 85.073 86.714 85.215 86.4742 85.6303L81.6545 93.9784L83.1557 94.8459Z" fill="#E4E4E4"/>
<path d="M58.2885 172.763C59.0176 172.078 59.3506 171.296 59.063 170.745C58.7074 170.064 57.5165 169.959 56.2457 170.438C56.3101 170.274 56.371 170.103 56.4258 169.926C57.1036 167.764 56.7158 165.717 55.5619 165.355C54.4355 165.003 52.9964 166.382 52.2971 168.455C51.7184 166.079 50.2304 164.405 48.956 164.705C47.7544 164.987 47.1661 166.921 47.5527 169.136C45.7938 168.36 44.0958 168.421 43.5552 169.357C42.9956 170.327 43.8679 171.901 45.5289 173.049C44.7414 173.313 44.1996 173.796 44.1256 174.401C44.0349 175.146 44.6721 175.878 45.684 176.332C45.6279 176.476 45.6136 176.622 45.6458 176.761C45.752 177.21 46.32 177.487 47.0635 177.517V177.519H56.5678V177.511C56.7504 177.487 56.8876 177.409 56.9342 177.285C56.9652 177.203 56.9509 177.11 56.9032 177.016C57.3972 176.968 57.7683 176.772 57.8912 176.446C57.9855 176.192 57.9139 175.899 57.717 175.61C58.9997 175.525 59.9866 174.962 60.0176 174.239C60.045 173.603 59.3267 173.027 58.2885 172.763Z" fill="#E4E4E4"/>
<path d="M78.0454 168.774C79.3866 167.513 80 166.075 79.4713 165.062C78.8162 163.807 76.6266 163.615 74.289 164.498C74.4083 164.194 74.5193 163.88 74.6207 163.557C75.8665 159.578 75.1553 155.815 73.0313 155.15C70.9609 154.501 68.3143 157.038 67.0279 160.85C65.9623 156.481 63.2274 153.401 60.8826 153.952C58.6738 154.472 57.5915 158.027 58.3027 162.102C55.0678 160.674 51.9462 160.787 50.9522 162.51C49.9224 164.293 51.5262 167.189 54.5821 169.299C53.1335 169.785 52.1371 170.672 52.0011 171.786C51.8328 173.154 53.0058 174.503 54.8661 175.336C54.7635 175.602 54.7361 175.869 54.7969 176.127C54.9902 176.951 56.0355 177.461 57.4018 177.515V177.519H74.882V177.504C75.2185 177.46 75.4691 177.318 75.555 177.09C75.6123 176.937 75.5872 176.766 75.4977 176.593C76.407 176.505 77.0908 176.146 77.3151 175.546C77.4893 175.079 77.3581 174.538 76.9953 174.01C79.3556 173.851 81.1682 172.818 81.2266 171.487C81.2768 170.317 79.9546 169.257 78.0454 168.774Z" fill="#F2F2F3"/>
<path d="M195.556 169.673C194.362 168.552 193.816 167.27 194.287 166.368C194.87 165.252 196.819 165.082 198.902 165.867C198.795 165.596 198.696 165.317 198.606 165.029C197.497 161.486 198.131 158.135 200.021 157.543C201.865 156.965 204.221 159.224 205.367 162.619C206.315 158.729 208.751 155.985 210.839 156.477C212.806 156.939 213.769 160.105 213.136 163.733C216.017 162.461 218.797 162.563 219.682 164.096C220.599 165.684 219.171 168.263 216.45 170.141C217.74 170.574 218.626 171.364 218.748 172.356C218.897 173.574 217.853 174.776 216.197 175.517C216.289 175.754 216.313 175.992 216.259 176.221C216.086 176.956 215.155 177.409 213.938 177.457V177.461H198.374V177.448C198.074 177.408 197.85 177.283 197.774 177.079C197.724 176.943 197.745 176.79 197.824 176.636C197.016 176.559 196.407 176.239 196.207 175.704C196.051 175.288 196.168 174.807 196.491 174.337C194.39 174.196 192.775 173.275 192.724 172.09C192.679 171.048 193.857 170.105 195.556 169.673Z" fill="#EAEAEA"/>
<path d="M213.319 174.326C212.837 173.873 212.616 173.355 212.807 172.991C213.042 172.54 213.83 172.47 214.671 172.788C214.628 172.678 214.589 172.565 214.552 172.449C214.103 171.018 214.36 169.664 215.124 169.424C215.868 169.191 216.82 170.103 217.283 171.475C217.666 169.904 218.651 168.795 219.494 168.993C220.289 169.181 220.678 170.46 220.423 171.925C221.586 171.412 222.71 171.453 223.067 172.072C223.438 172.714 222.861 173.756 221.762 174.515C222.283 174.69 222.641 175.009 222.69 175.41C222.751 175.902 222.328 176.387 221.659 176.688C221.696 176.783 221.707 176.878 221.684 176.972C221.615 177.269 221.239 177.451 220.747 177.47V177.473H214.458V177.467C214.337 177.451 214.246 177.4 214.215 177.318C214.195 177.263 214.205 177.202 214.236 177.14C213.909 177.108 213.663 176.979 213.583 176.763C213.52 176.594 213.567 176.4 213.698 176.21C212.848 176.153 212.196 175.781 212.175 175.302C212.157 174.881 212.633 174.5 213.319 174.326Z" fill="#E4E4E4"/>
<path d="M137.64 170.125C136.513 169.066 135.999 167.859 136.443 167.009C136.992 165.957 138.831 165.795 140.792 166.536C140.692 166.281 140.599 166.017 140.514 165.747C139.468 162.407 140.066 159.248 141.848 158.69C143.586 158.145 145.808 160.274 146.886 163.475C147.781 159.806 150.077 157.222 152.045 157.685C153.898 158.12 154.806 161.105 154.211 164.525C156.925 163.327 159.546 163.422 160.38 164.867C161.245 166.363 159.898 168.794 157.333 170.565C158.549 170.973 159.386 171.718 159.499 172.653C159.64 173.801 158.656 174.933 157.095 175.633C157.181 175.855 157.205 176.079 157.153 176.296C156.991 176.988 156.114 177.415 154.966 177.461V177.464H140.295V177.452C140.012 177.414 139.802 177.296 139.73 177.104C139.683 176.976 139.703 176.833 139.777 176.688C139.014 176.614 138.442 176.312 138.253 175.808C138.106 175.417 138.216 174.963 138.52 174.519C136.54 174.387 135.018 173.518 134.969 172.401C134.927 171.419 136.037 170.53 137.64 170.125Z" fill="#F2F2F3"/>
<path d="M153.928 173.307C153.289 172.708 152.998 172.024 153.25 171.542C153.561 170.946 154.602 170.855 155.713 171.275C155.657 171.129 155.604 170.98 155.555 170.827C154.963 168.936 155.302 167.146 156.312 166.83C157.295 166.522 158.554 167.727 159.165 169.54C159.672 167.462 160.971 165.998 162.087 166.261C163.137 166.508 163.652 168.197 163.314 170.135C164.852 169.456 166.335 169.51 166.808 170.329C167.298 171.177 166.536 172.553 165.082 173.556C165.771 173.788 166.245 174.209 166.309 174.739C166.389 175.389 165.832 176.03 164.947 176.426C164.996 176.553 165.01 176.68 164.981 176.802C164.888 177.195 164.391 177.437 163.741 177.462V177.464H155.431V177.457C155.271 177.437 155.152 177.369 155.111 177.26C155.084 177.189 155.096 177.106 155.139 177.024C154.707 176.982 154.381 176.812 154.275 176.526C154.191 176.304 154.255 176.048 154.426 175.796C153.305 175.721 152.443 175.229 152.415 174.597C152.391 174.041 153.02 173.537 153.928 173.307Z" fill="#E4E4E4"/>
<path d="M162.178 74.4019C162.075 74.4019 161.976 74.4174 161.883 74.4472C161.887 74.3983 161.889 74.3494 161.889 74.2993C161.889 73.1561 160.962 72.229 159.819 72.229C158.87 72.229 158.069 72.8674 157.825 73.7372C157.709 73.705 157.586 73.6871 157.459 73.6871C156.718 73.6871 156.118 74.2873 156.118 75.0284C156.118 75.7694 156.718 76.3696 157.459 76.3696C157.483 76.3696 157.507 76.3696 157.53 76.3672V76.3696H162.178C162.721 76.3696 163.161 75.9293 163.161 75.3863C163.161 74.8434 162.721 74.4031 162.178 74.4031V74.4019Z" fill="#F2F2F3"/>
<path d="M126.029 51.7903C125.469 51.7903 124.946 51.9442 124.498 52.2127C124.035 50.2092 122.24 48.7152 120.096 48.7152C119.908 48.7152 119.721 48.7284 119.539 48.751C118.54 46.5244 116.304 44.9731 113.706 44.9731C110.176 44.9731 107.316 47.8346 107.316 51.3631C107.316 51.4013 107.317 51.4383 107.317 51.4753C106.89 51.2736 106.413 51.1602 105.909 51.1602C104.088 51.1602 102.612 52.6363 102.612 54.4573C102.612 56.2782 104.088 57.7531 105.909 57.7531H126.029C127.676 57.7531 129.011 56.4178 129.011 54.7711C129.011 53.1244 127.676 51.7891 126.029 51.7891V51.7903Z" fill="#F2F2F3"/>
<path d="M95.3638 122.802C95.7325 122.802 96.0773 122.903 96.3721 123.08C96.6763 121.763 97.8565 120.779 99.2669 120.779C99.391 120.779 99.5128 120.789 99.6333 120.803C100.291 119.339 101.761 118.319 103.471 118.319C105.792 118.319 107.674 120.201 107.674 122.521V122.597C107.954 122.463 108.268 122.388 108.6 122.388C109.798 122.388 110.768 123.359 110.768 124.557C110.768 125.755 109.798 126.725 108.6 126.725H95.3638C94.2815 126.725 93.4032 125.847 93.4032 124.764C93.4032 123.68 94.2815 122.802 95.3638 122.802Z" fill="#F2F2F3"/>
<path d="M223.604 167.727C223.93 167.786 224.823 167.889 225.537 167.467C226.253 167.045 226.593 166.214 226.7 165.901C226.373 165.843 225.481 165.741 224.766 166.162C224.051 166.583 223.71 167.415 223.604 167.727ZM227.006 165.72L226.975 165.838C226.971 165.852 226.89 166.159 226.69 166.539C226.502 166.892 226.172 167.375 225.661 167.677C225.15 167.979 224.567 168.034 224.168 168.027C223.739 168.019 223.43 167.942 223.417 167.939L223.297 167.909L223.329 167.789C223.332 167.776 223.414 167.47 223.615 167.09C223.802 166.737 224.131 166.253 224.643 165.951C225.154 165.65 225.736 165.595 226.136 165.602C226.566 165.609 226.875 165.687 226.887 165.691L227.006 165.72Z" fill="#E4E4E4"/>
<path d="M225.302 168.574C224.167 169.003 222.902 168.436 222.902 168.436C222.902 168.436 223.477 167.175 224.613 166.748C225.748 166.319 227.013 166.886 227.013 166.886C227.013 166.886 226.438 168.147 225.302 168.574Z" fill="#F2F2F3"/>
<path d="M219.375 155.53C219.787 155.501 220.897 155.354 221.629 154.63C222.366 153.905 222.524 152.798 222.559 152.388C222.148 152.418 221.039 152.563 220.305 153.288C219.57 154.014 219.41 155.119 219.375 155.53ZM222.873 152.078V152.23C222.871 152.247 222.867 152.642 222.739 153.161C222.62 153.643 222.368 154.328 221.843 154.846C221.318 155.365 220.631 155.607 220.147 155.719C219.626 155.841 219.231 155.841 219.214 155.841H219.061V155.687C219.061 155.672 219.069 155.276 219.196 154.757C219.314 154.274 219.566 153.591 220.091 153.072C220.616 152.554 221.304 152.31 221.788 152.198C222.308 152.078 222.703 152.076 222.72 152.076H222.873V152.078Z" fill="#E4E4E4"/>
<path d="M221.682 156.038C220.441 156.899 218.743 156.598 218.743 156.598C218.743 156.598 219.056 154.902 220.296 154.042C221.537 153.182 223.235 153.482 223.235 153.482C223.235 153.482 222.921 155.178 221.682 156.038Z" fill="#F2F2F3"/>
<path d="M65.7127 152.154C65.9143 151.876 66.4143 151.09 66.3451 150.233C66.2747 149.375 65.6542 148.682 65.4096 148.439C65.2091 148.719 64.7079 149.505 64.7783 150.361C64.8487 151.22 65.4692 151.913 65.7127 152.154ZM65.3798 148.073L65.4764 148.155C65.4871 148.165 65.7365 148.38 66.0003 148.739C66.2449 149.073 66.5468 149.599 66.5969 150.213C66.647 150.826 66.4346 151.394 66.2473 151.764C66.0456 152.161 65.8344 152.413 65.8248 152.424L65.7437 152.522L65.6458 152.439C65.6363 152.43 65.3857 152.215 65.1232 151.856C64.8786 151.522 64.5767 150.994 64.5266 150.382C64.4764 149.769 64.6889 149.199 64.8762 148.831C65.0779 148.433 65.2891 148.18 65.2974 148.17L65.3798 148.073Z" fill="#E4E4E4"/>
<path d="M67.2724 150.953C67.1578 152.206 66.0564 153.13 66.0564 153.13C66.0564 153.13 65.1412 152.021 65.2557 150.77C65.3703 149.517 66.4705 148.593 66.4705 148.593C66.4705 148.593 67.3857 149.701 67.2724 150.953Z" fill="#F2F2F3"/>
<path d="M43.8321 164.804C43.7903 164.519 43.6292 163.751 43.0839 163.276C42.5386 162.802 41.757 162.749 41.4682 162.747C41.5111 163.032 41.6722 163.799 42.2164 164.274C42.7629 164.749 43.5433 164.801 43.8321 164.804ZM41.2355 162.544L41.3417 162.537C41.3536 162.537 41.6305 162.519 41.9992 162.581C42.3429 162.638 42.8333 162.778 43.2235 163.117C43.6137 163.455 43.8201 163.923 43.9239 164.255C44.0361 164.612 44.0576 164.889 44.0576 164.901L44.0659 165.007L43.9585 165.014C43.9478 165.015 43.671 165.032 43.3011 164.97C42.9586 164.914 42.467 164.774 42.0768 164.434C41.6866 164.095 41.4813 163.627 41.3775 163.296C41.2653 162.939 41.2439 162.662 41.2427 162.65L41.2355 162.544Z" fill="#E4E4E4"/>
<path d="M44.0644 163.167C44.7314 163.986 44.6109 165.189 44.6109 165.189C44.6109 165.189 43.4093 165.06 42.7434 164.239C42.0764 163.418 42.1969 162.217 42.1969 162.217C42.1969 162.217 43.3973 162.346 44.0644 163.167Z" fill="#F2F2F3"/>
<path d="M193.663 161.939C193.629 161.616 193.483 160.749 192.894 160.192C192.304 159.634 191.431 159.54 191.107 159.525C191.142 159.847 191.286 160.714 191.876 161.27C192.467 161.828 193.34 161.923 193.663 161.939ZM190.854 159.286L190.975 159.282C190.988 159.282 191.298 159.275 191.71 159.361C192.092 159.441 192.636 159.62 193.058 160.019C193.48 160.417 193.69 160.951 193.791 161.328C193.901 161.733 193.912 162.044 193.912 162.057L193.915 162.177L193.796 162.18C193.783 162.18 193.471 162.187 193.061 162.101C192.678 162.021 192.134 161.842 191.712 161.443C191.29 161.045 191.081 160.513 190.98 160.136C190.87 159.73 190.859 159.418 190.858 159.405L190.854 159.286Z" fill="#E4E4E4"/>
<path d="M193.999 160.113C194.709 161.064 194.519 162.405 194.519 162.405C194.519 162.405 193.179 162.206 192.468 161.256C191.758 160.305 191.949 158.963 191.949 158.963C191.949 158.963 193.289 159.162 193.999 160.113Z" fill="#F2F2F3"/>
<path d="M157.585 170.115H102.107L103.117 166.46L105.088 159.324L106.281 155.003L108.041 148.634L111.434 136.354L113.194 129.983L125.567 85.1995H134.125L138.659 101.612L146.498 129.983L148.258 136.354L151.651 148.634L153.411 155.003L156.575 166.46L157.585 170.115Z" fill="#A3254A"/>
<path d="M157.585 170.115H102.107L103.117 166.46L105.088 159.324C143.748 157.04 138.659 101.612 138.659 101.612L156.575 166.46L157.585 170.115Z" fill="#710A28"/>
<path d="M168.937 177.548H90.7559V170.115H168.937V177.548Z" fill="#710A28"/>
<path d="M157.585 170.115H102.107L103.117 166.46H156.575L157.585 170.115Z" fill="#C55A7A"/>
<path d="M148.259 136.354C148.259 136.354 147.097 160.872 118.927 166.48L156.576 166.46L148.259 136.354Z" fill="#8A1538"/>
<path d="M148.259 136.354H111.434L113.194 129.983H146.498L148.259 136.354Z" fill="white"/>
<path d="M153.411 155.003H106.281L108.042 148.634H151.651L153.411 155.003Z" fill="white"/>
<path d="M150.852 170.115C150.852 170.115 140.49 177.938 102.107 177.548H168.936V170.115H150.852Z" fill="#8A1538"/>
<path d="M180.423 180H78.1802C77.4858 180 76.9237 179.438 76.9237 178.743V178.708C76.9237 178.013 77.4858 177.451 78.1802 177.451H180.423C181.116 177.451 181.68 178.013 181.68 178.708V178.743C181.68 179.438 181.116 180 180.423 180Z" fill="#CECECE"/>
<path d="M80.1179 180H63.5612C62.868 180 62.3047 179.438 62.3047 178.743V178.708C62.3047 178.013 62.868 177.451 63.5612 177.451H80.1179C80.8124 177.451 81.3744 178.013 81.3744 178.708V178.743C81.3744 179.438 80.8124 180 80.1179 180Z" fill="#CECECE"/>
<path d="M55.9696 180H38.5753C37.8808 180 37.3188 179.438 37.3188 178.743V178.708C37.3188 178.013 37.8808 177.451 38.5753 177.451H55.9696C56.6641 177.451 57.2261 178.013 57.2261 178.708V178.743C57.2261 179.438 56.6641 180 55.9696 180Z" fill="#CECECE"/>
<path d="M202.496 180H188.217C187.523 180 186.96 179.438 186.96 178.743V178.708C186.96 178.013 187.523 177.451 188.217 177.451H202.496C203.189 177.451 203.752 178.013 203.752 178.708V178.743C203.752 179.438 203.189 180 202.496 180Z" fill="#CECECE"/>
<path d="M221.162 180H210.302C209.607 180 209.045 179.438 209.045 178.743V178.708C209.045 178.013 209.607 177.451 210.302 177.451H221.162C221.856 177.451 222.418 178.013 222.418 178.708V178.743C222.418 179.438 221.856 180 221.162 180Z" fill="#CECECE"/>
</g>
<defs>
<clipPath id="clip0_4141_19900">
<rect width="268.963" height="180" fill="white" transform="translate(0.0184326)"/>
</clipPath>
</defs>
</svg>
