<svg width="22" height="27" viewBox="0 0 22 27" fill="none" xmlns="http://www.w3.org/2000/svg">
<path d="M14.8463 1V5.6875C14.8463 6.55045 15.5351 7.25 16.3847 7.25H21M6.38497 7.25H9.46182M6.38497 11.9375H15.6155M6.38497 16.625H15.6155M18.6924 3.34375C18.0077 2.72154 17.2972 1.98357 16.8486 1.50427C16.5502 1.18533 16.1378 1 15.7045 1H4.07697C2.37768 1 1.00013 2.3991 1.00012 4.12498L1 22.8749C0.999989 24.6008 2.37754 25.9999 4.07684 25.9999L17.9227 26C19.622 26 20.9995 24.6009 20.9996 22.8751L21 6.30968C21 5.91015 20.8499 5.52609 20.5769 5.23846C20.072 4.70657 19.229 3.8314 18.6924 3.34375Z" stroke="#404040" stroke-width="2" stroke-linecap="round" stroke-linejoin="round"/>
</svg>
