<svg width="49" height="48" viewBox="0 0 49 48" fill="none" xmlns="http://www.w3.org/2000/svg">
<path d="M12.2857 30.8578C9.09035 30.8578 6.5 28.8582 6.5 25.9263C6.5 22.9943 9.09035 20.6175 12.2857 20.6175C12.503 20.6175 12.7175 20.6285 12.9286 20.6499V20.6175H13.0081C12.9556 20.231 12.9286 19.8373 12.9286 19.4378C12.9286 14.2254 17.5336 10 23.2143 10C27.0611 10 30.4146 11.9376 32.179 14.8072C32.6101 14.749 33.0512 14.7189 33.5 14.7189C38.4706 14.7189 42.5 18.4162 42.5 22.977C42.5 26.7314 39.7695 29.5934 36.0312 30.5368M24.2159 38V24.4516M24.2159 24.4516L18.3125 30.0391M24.2159 24.4516L30.125 30.0391" stroke="#4194B3" stroke-width="3" stroke-linecap="round" stroke-linejoin="round"/>
</svg>
