<svg width="18" height="20" viewBox="0 0 18 20" fill="none" xmlns="http://www.w3.org/2000/svg">
<path d="M3.49966 4.44141V2.94141C3.49966 2.38912 3.94738 1.94141 4.49966 1.94141H13.9997C14.5519 1.94141 14.9997 2.38912 14.9997 2.94141V6.94141M1.00045 16.0589L1.00052 8.45531C1.00053 7.69371 1.00024 6.60893 1 5.82347C0.99983 5.27104 1.44761 4.82373 2.00004 4.82373H6.76522L9.06941 7.28509H15.9996C16.5519 7.28509 16.9997 7.73283 16.9996 8.28512L16.9994 16.059C16.9994 17.1636 16.1039 18.059 14.9994 18.059L3.00044 18.0589C1.89587 18.0589 1.00043 17.1635 1.00045 16.0589Z" stroke="#E8E8E8" stroke-width="2" stroke-linecap="round" stroke-linejoin="round"/>
</svg>
