<svg width="36" height="37" viewBox="0 0 36 37" fill="none" xmlns="http://www.w3.org/2000/svg">
<path d="M29.7209 0.0507812H6.27907C2.81302 0.0507812 0 2.8638 0 6.32985V23.074C0 26.5401 2.81302 29.3531 6.27907 29.3531H7.51814L10.5321 34.5773C11.0679 35.4982 12.0056 36.0508 13.0772 36.0508C14.1488 36.0508 15.0865 35.4982 15.6223 34.5773L18.6363 29.3531H29.7209C33.187 29.3531 36 26.5401 36 23.074V6.32985C36 2.8638 33.187 0.0507812 29.7209 0.0507812ZM21.3488 22.6554H9.62791C8.94139 22.6554 8.37209 22.0861 8.37209 21.3996C8.37209 20.7131 8.94139 20.1438 9.62791 20.1438H21.3488C23.4251 20.1438 25.1163 18.4526 25.1163 16.3764C25.1163 14.3001 23.4251 12.6089 21.3488 12.6089H16.426L19.306 15.4889C19.7916 15.9745 19.7916 16.7782 19.306 17.2638C19.0549 17.515 18.7367 17.6322 18.4186 17.6322C18.1005 17.6322 17.7823 17.515 17.5312 17.2638L12.5079 12.2405C12.0223 11.755 12.0223 10.9512 12.5079 10.4657L17.5312 5.44241C18.0167 4.95683 18.8205 4.95683 19.306 5.44241C19.7916 5.92799 19.7916 6.73171 19.306 7.21729L16.426 10.0973H21.3488C24.8149 10.0973 27.6279 12.9103 27.6279 16.3764C27.6279 19.8424 24.8149 22.6554 21.3488 22.6554Z" fill="url(#paint0_linear_1935_95859)"/>
<defs>
<linearGradient id="paint0_linear_1935_95859" x1="11.4237" y1="15.1408" x2="34.3263" y2="38.0432" gradientUnits="userSpaceOnUse">
<stop stop-color="#BF2B58"/>
<stop offset="1" stop-color="#891538"/>
</linearGradient>
</defs>
</svg>
