<svg width="32" height="32" viewBox="0 0 32 32" fill="none" xmlns="http://www.w3.org/2000/svg">
<path fill-rule="evenodd" clip-rule="evenodd" d="M27.6693 26.668C27.6693 27.64 27.2826 28.5733 26.5959 29.2613C25.9079 29.948 24.9746 30.3346 24.0026 30.3346H8.0026C7.0306 30.3346 6.09727 29.948 5.40927 29.2613C4.7226 28.5733 4.33594 27.64 4.33594 26.668V5.33464C4.33594 4.36264 4.7226 3.4293 5.40927 2.7413C6.09727 2.05464 7.0306 1.66797 8.0026 1.66797H19.4506C20.0693 1.66797 20.6626 1.9133 21.0999 2.35197L26.9853 8.2373C27.4239 8.67464 27.6693 9.26797 27.6693 9.88664V26.668ZM25.6693 26.668V9.88664C25.6693 9.79864 25.6346 9.7133 25.5719 9.65064L19.6866 3.7653C19.6239 3.70264 19.5386 3.66797 19.4506 3.66797H8.0026C7.55994 3.66797 7.13727 3.84397 6.82394 4.15597C6.51194 4.4693 6.33594 4.89197 6.33594 5.33464V26.668C6.33594 27.1106 6.51194 27.5333 6.82394 27.8466C7.13727 28.1586 7.55994 28.3346 8.0026 28.3346H24.0026C24.4453 28.3346 24.8679 28.1586 25.1813 27.8466C25.4933 27.5333 25.6693 27.1106 25.6693 26.668Z" fill="#404040"/>
<path fill-rule="evenodd" clip-rule="evenodd" d="M19 3.33594C19 2.78394 19.448 2.33594 20 2.33594C20.552 2.33594 21 2.78394 21 3.33594V8.0026C21 8.1866 21.1493 8.33594 21.3333 8.33594H26C26.552 8.33594 27 8.78394 27 9.33594C27 9.88794 26.552 10.3359 26 10.3359H21.3333C20.044 10.3359 19 9.29194 19 8.0026V3.33594Z" fill="#404040"/>
<path fill-rule="evenodd" clip-rule="evenodd" d="M10.6719 15C10.1199 15 9.67188 14.552 9.67188 14C9.67188 13.448 10.1199 13 10.6719 13H21.3385C21.8905 13 22.3385 13.448 22.3385 14C22.3385 14.552 21.8905 15 21.3385 15H10.6719Z" fill="#404040"/>
<path fill-rule="evenodd" clip-rule="evenodd" d="M10.6719 19.668C10.1199 19.668 9.67188 19.22 9.67188 18.668C9.67188 18.116 10.1199 17.668 10.6719 17.668H21.3385C21.8905 17.668 22.3385 18.116 22.3385 18.668C22.3385 19.22 21.8905 19.668 21.3385 19.668H10.6719Z" fill="#404040"/>
<path fill-rule="evenodd" clip-rule="evenodd" d="M10.6719 24.3359C10.1199 24.3359 9.67188 23.8879 9.67188 23.3359C9.67188 22.7839 10.1199 22.3359 10.6719 22.3359H16.6719C17.2239 22.3359 17.6719 22.7839 17.6719 23.3359C17.6719 23.8879 17.2239 24.3359 16.6719 24.3359H10.6719Z" fill="#404040"/>
</svg>
