<svg width="15" height="14" viewBox="0 0 15 14" fill="none" xmlns="http://www.w3.org/2000/svg">
<path d="M13.3681 3.25H5.5" stroke="#926D92" stroke-width="1.5"/>
<path d="M3.25 5.5C3.69501 5.5 4.13002 5.36804 4.50003 5.12081C4.87004 4.87357 5.15843 4.52217 5.32873 4.11104C5.49903 3.6999 5.54358 3.2475 5.45677 2.81105C5.36995 2.37459 5.15566 1.97368 4.84099 1.65901C4.52632 1.34434 4.12541 1.13005 3.68895 1.04323C3.2525 0.956417 2.8001 1.00097 2.38896 1.17127C1.97783 1.34157 1.62643 1.62996 1.37919 1.99997C1.13196 2.36998 1 2.80499 1 3.25C1 3.84674 1.23705 4.41903 1.65901 4.84099C2.08097 5.26295 2.65326 5.5 3.25 5.5Z" stroke="#926D92" stroke-width="1.5"/>
<path d="M0.999089 10.75H8.86719" stroke="#926D92" stroke-width="1.5"/>
<path d="M11.1172 13C10.6722 13 10.2372 12.868 9.86715 12.6208C9.49714 12.3736 9.20876 12.0222 9.03846 11.611C8.86816 11.1999 8.8236 10.7475 8.91042 10.311C8.99724 9.87459 9.21153 9.47368 9.5262 9.15901C9.84087 8.84434 10.2418 8.63005 10.6782 8.54323C11.1147 8.45642 11.5671 8.50097 11.9782 8.67127C12.3894 8.84157 12.7408 9.12996 12.988 9.49997C13.2352 9.86998 13.3672 10.305 13.3672 10.75C13.3672 11.3467 13.1301 11.919 12.7082 12.341C12.2862 12.7629 11.7139 13 11.1172 13Z" stroke="#926D92" stroke-width="1.5"/>
</svg>
