<svg width="46" height="46" viewBox="0 0 46 46" fill="none" xmlns="http://www.w3.org/2000/svg">
<g clip-path="url(#clip0_1935_93328)">
<path d="M30.5801 14.746C38.9794 14.6177 45.8348 21.2285 45.9975 29.6271C46.0214 30.8602 45.8981 32.0605 45.6442 33.2117C45.2142 35.161 44.9586 37.1447 44.9586 39.1409V42.9995C44.9586 43.5907 44.4794 44.0699 43.8882 44.0699H40.0296C38.0334 44.0699 36.0497 44.3255 34.1004 44.7555C32.9492 45.0094 31.749 45.1327 30.5159 45.1088C22.1173 44.9463 15.5065 38.091 15.6346 29.6919C15.7596 21.4937 22.382 14.8712 30.5801 14.746Z" fill="url(#paint0_linear_1935_93328)"/>
<path d="M30.5801 14.746C38.9794 14.6177 45.8348 21.2285 45.9975 29.6271C46.0214 30.8602 45.8981 32.0605 45.6442 33.2117C45.2142 35.161 44.9586 37.1447 44.9586 39.1409V42.9995C44.9586 43.5907 44.4794 44.0699 43.8882 44.0699H40.0296C38.0334 44.0699 36.0497 44.3255 34.1004 44.7555C32.9492 45.0094 31.749 45.1327 30.5159 45.1088C22.1173 44.9463 15.5065 38.091 15.6346 29.6919C15.7596 21.4937 22.382 14.8712 30.5801 14.746Z" fill="url(#paint1_linear_1935_93328)"/>
<path d="M18.7861 0.89091C8.5535 0.734582 0.201731 8.78825 0.00353618 19.0202C-0.0254833 20.5223 0.124645 21.9847 0.434067 23.3871C0.957855 25.7619 1.26925 28.1786 1.26925 30.6105V35.3113C1.26925 36.0315 1.85306 36.6154 2.57333 36.6154H7.27413C9.70601 36.6154 12.1227 36.9268 14.4976 37.4506C15.9 37.7599 17.3623 37.9101 18.8644 37.881C29.0961 37.6829 37.1498 29.3314 36.9938 19.099C36.8415 9.11133 28.7737 1.04337 18.7861 0.89091Z" fill="url(#paint2_linear_1935_93328)"/>
<path d="M11.8759 18.3942C11.3534 17.8389 10.6138 17.4902 9.79098 17.4902C8.20857 17.4902 6.92578 18.773 6.92578 20.3554C6.92578 21.1781 7.27437 21.9177 7.8297 22.4403L14.0104 28.621C14.533 29.1763 15.2726 29.525 16.0953 29.525C17.6777 29.525 18.9605 28.2422 18.9605 26.6598C18.9605 25.8371 18.6118 25.0975 18.0566 24.5748L11.8759 18.3942Z" fill="url(#paint3_linear_1935_93328)"/>
<path d="M9.79098 23.2206C11.3734 23.2206 12.6562 21.9378 12.6562 20.3554C12.6562 18.773 11.3734 17.4902 9.79098 17.4902C8.20858 17.4902 6.92578 18.773 6.92578 20.3554C6.92578 21.9378 8.20858 23.2206 9.79098 23.2206Z" fill="white"/>
<path d="M19.9814 18.3942C19.4588 17.8389 18.7192 17.4902 17.8965 17.4902C16.314 17.4902 15.0312 18.773 15.0312 20.3554C15.0312 21.1781 15.3798 21.9177 15.9352 22.4403L22.1159 28.621C22.6385 29.1763 23.3781 29.525 24.2008 29.525C25.7832 29.525 27.066 28.2422 27.066 26.6598C27.066 25.8371 26.7173 25.0975 26.1621 24.5748L19.9814 18.3942Z" fill="url(#paint4_linear_1935_93328)"/>
<path d="M17.8965 23.2206C19.4789 23.2206 20.7617 21.9378 20.7617 20.3554C20.7617 18.773 19.4789 17.4902 17.8965 17.4902C16.314 17.4902 15.0312 18.773 15.0312 20.3554C15.0312 21.9378 16.314 23.2206 17.8965 23.2206Z" fill="white"/>
<path d="M28.0829 18.3942C27.5604 17.8389 26.8208 17.4902 25.998 17.4902C24.4156 17.4902 23.1328 18.773 23.1328 20.3554C23.1328 21.1781 23.4815 21.9177 24.0367 22.4403L30.2174 28.621C30.74 29.1763 31.4796 29.525 32.3023 29.525C33.8848 29.525 35.1675 28.2422 35.1675 26.6598C35.1675 25.8371 34.8189 25.0975 34.2636 24.5748L28.0829 18.3942Z" fill="url(#paint5_linear_1935_93328)"/>
<path d="M25.998 23.2206C27.5804 23.2206 28.8632 21.9378 28.8632 20.3554C28.8632 18.773 27.5804 17.4902 25.998 17.4902C24.4156 17.4902 23.1328 18.773 23.1328 20.3554C23.1328 21.9378 24.4156 23.2206 25.998 23.2206Z" fill="white"/>
</g>
<defs>
<linearGradient id="paint0_linear_1935_93328" x1="27.7515" y1="26.8638" x2="50.0439" y2="49.1562" gradientUnits="userSpaceOnUse">
<stop stop-color="#2A9984"/>
<stop offset="1" stop-color="#88F0DD"/>
</linearGradient>
<linearGradient id="paint1_linear_1935_93328" x1="35.0489" y1="34.1608" x2="25.5803" y2="24.6931" gradientUnits="userSpaceOnUse">
<stop stop-color="#88F0DD" stop-opacity="0"/>
<stop offset="1" stop-color="#2A9984"/>
</linearGradient>
<linearGradient id="paint2_linear_1935_93328" x1="11.7398" y1="16.3961" x2="35.2759" y2="39.9322" gradientUnits="userSpaceOnUse">
<stop stop-color="#BF2B58"/>
<stop offset="1" stop-color="#891538"/>
</linearGradient>
<linearGradient id="paint3_linear_1935_93328" x1="16.1641" y1="26.7295" x2="3.77234" y2="14.3378" gradientUnits="userSpaceOnUse">
<stop stop-color="#65011F" stop-opacity="0"/>
<stop offset="1" stop-color="#65011F"/>
</linearGradient>
<linearGradient id="paint4_linear_1935_93328" x1="24.2696" y1="26.7295" x2="11.8778" y2="14.3378" gradientUnits="userSpaceOnUse">
<stop stop-color="#65011F" stop-opacity="0"/>
<stop offset="1" stop-color="#65011F"/>
</linearGradient>
<linearGradient id="paint5_linear_1935_93328" x1="32.3711" y1="26.7295" x2="19.9794" y2="14.3378" gradientUnits="userSpaceOnUse">
<stop stop-color="#65011F" stop-opacity="0"/>
<stop offset="1" stop-color="#65011F"/>
</linearGradient>
<clipPath id="clip0_1935_93328">
<rect width="46" height="46" fill="white"/>
</clipPath>
</defs>
</svg>
