<svg width="20" height="20" viewBox="0 0 20 20" fill="none" xmlns="http://www.w3.org/2000/svg">
<path d="M2.5 7.84671C2.5 7.53888 2.65668 7.25009 2.92048 7.07169L9.42048 2.67598C9.76744 2.44134 10.2326 2.44134 10.5795 2.67598L17.0795 7.07169C17.3433 7.25009 17.5 7.53888 17.5 7.84671V16.0735C17.5 16.8613 16.8284 17.5 16 17.5H4C3.17157 17.5 2.5 16.8613 2.5 16.0735V7.84671Z" stroke="#E8E8E8" stroke-width="2"/>
<path d="M11.875 10.9375C11.875 11.973 11.0355 12.8125 10 12.8125C8.96447 12.8125 8.125 11.973 8.125 10.9375C8.125 9.90197 8.96447 9.0625 10 9.0625C11.0355 9.0625 11.875 9.90197 11.875 10.9375Z" stroke="#E8E8E8" stroke-width="2"/>
</svg>
