<svg width="18" height="18" viewBox="0 0 18 18" fill="none" xmlns="http://www.w3.org/2000/svg">
<path d="M8.5 17H3.49999C2.39542 16.9999 1.49999 16.1045 1.5 14.9999L1.50008 2.99999C1.50008 1.89542 2.39551 1 3.50008 1H12.5003C13.6049 1 14.5003 1.89543 14.5003 3V7M15.5 15.5L16.5 16.5M5.00031 5H11.0003M5.00031 8H11.0003M5.00031 11H8.00031M16 13.5C16 14.8807 14.8807 16 13.5 16C12.1193 16 11 14.8807 11 13.5C11 12.1193 12.1193 11 13.5 11C14.8807 11 16 12.1193 16 13.5Z" stroke="#E8E8E8" stroke-width="2" stroke-linecap="round" stroke-linejoin="round"/>
</svg>
