<svg width="18" height="18" viewBox="0 0 18 18" fill="none" xmlns="http://www.w3.org/2000/svg">
<path d="M3.16667 16.5C2.24619 16.5 1.5 15.764 1.5 14.8562L1.5 3.14383C1.5 2.23597 2.2462 1.5 3.16667 1.5L5.66667 1.5C6.58714 1.5 7.33334 2.23597 7.33334 3.14383L7.33333 14.8562C7.33333 15.764 6.58714 16.5 5.66667 16.5L3.16667 16.5Z" stroke="black" stroke-width="1.5" stroke-linecap="round" stroke-linejoin="round"/>
<path d="M14.8333 16.5C15.7538 16.5 16.5 15.764 16.5 14.8562L16.5 3.14383C16.5 2.23597 15.7538 1.5 14.8333 1.5L12.3333 1.5C11.4129 1.5 10.6667 2.23597 10.6667 3.14384L10.6667 14.8562C10.6667 15.764 11.4129 16.5 12.3333 16.5L14.8333 16.5Z" stroke="black" stroke-width="1.5" stroke-linecap="round" stroke-linejoin="round"/>
</svg>
