<svg width="18" height="18" viewBox="0 0 18 18" fill="none" xmlns="http://www.w3.org/2000/svg">
<path d="M0 16.9999C-6.2108e-05 17.5522 0.447603 17.9999 0.999888 18C1.55217 18.0001 1.99994 17.5524 2 17.0001L0 16.9999ZM1.00034 13.9997L2.00034 13.9998L1.00034 13.9997ZM9.5 12C10.0523 12 10.5 11.5523 10.5 11C10.5 10.4477 10.0523 10 9.5 10V12ZM17 13C17.5523 13 18 12.5523 18 12C18 11.4477 17.5523 11 17 11V13ZM12.5 11C11.9477 11 11.5 11.4477 11.5 12C11.5 12.5523 11.9477 13 12.5 13V11ZM13.75 14.2499C13.75 14.8022 14.1977 15.2499 14.75 15.2499C15.3023 15.2499 15.75 14.8022 15.75 14.2499H13.75ZM15.75 9.74988C15.75 9.1976 15.3023 8.74988 14.75 8.74988C14.1977 8.74988 13.75 9.1976 13.75 9.74988H15.75ZM13.989 0.127693C13.5072 -0.142351 12.8977 0.0292799 12.6277 0.511042C12.3576 0.992804 12.5293 1.60226 13.011 1.87231L13.989 0.127693ZM13.011 6.12769C12.5293 6.39774 12.3576 7.00719 12.6277 7.48896C12.8977 7.97072 13.5072 8.14235 13.989 7.87231L13.011 6.12769ZM10 4C10 5.10457 9.10457 6 8 6V8C10.2091 8 12 6.20914 12 4H10ZM8 6C6.89543 6 6 5.10457 6 4H4C4 6.20914 5.79086 8 8 8V6ZM6 4C6 2.89543 6.89543 2 8 2V0C5.79086 0 4 1.79086 4 4H6ZM8 2C9.10457 2 10 2.89543 10 4H12C12 1.79086 10.2091 0 8 0V2ZM2 17.0001L2.00034 13.9998L0.000337243 13.9995L0 16.9999L2 17.0001ZM4.00034 10C1.79137 10 0.000585556 11.7906 0.000337243 13.9995L2.00034 13.9998C2.00046 12.8953 2.89586 12 4.00034 12V10ZM4.00034 12H9.5V10H4.00034V12ZM17 11H14.75V13H17V11ZM14.75 11H12.5V13H14.75V11ZM15.75 14.2499V12H13.75V14.2499H15.75ZM15.75 12V9.74988H13.75V12H15.75ZM13.011 1.87231C14.006 2.42999 14.5 3.23151 14.5 4H16.5C16.5 2.30995 15.4211 0.93047 13.989 0.127693L13.011 1.87231ZM14.5 4C14.5 4.76849 14.006 5.57001 13.011 6.12769L13.989 7.87231C15.4211 7.06953 16.5 5.69004 16.5 4H14.5Z" fill="#E8E8E8"/>
</svg>
